<svg width="283" height="325" viewBox="0 0 283 325" fill="none" xmlns="http://www.w3.org/2000/svg">
<path d="M293.064 13C292.175 15.0044 292.627 16.3587 292.225 18.4362C289.346 33.3391 283.185 48.5677 278.204 62.6178C274.606 72.767 269.014 96.61 260.083 105.02C255.71 109.138 244.44 110.355 239.26 111.494C233.06 112.858 226.798 114.015 220.487 114.608C213.868 115.23 207.216 115.266 200.642 116.387C192.345 117.802 182.989 119.757 177.63 127.358C173.565 133.124 173.861 141.813 174.183 148.609C175.036 166.621 180.567 182.91 184.897 200.105C193.139 232.831 159.829 237.733 136.357 236.083C115.212 234.596 95.816 225.733 75.2394 221.553C62.0346 218.87 46.8245 216.584 34.3391 223.332C22.7029 229.621 20.3526 243.401 17.1963 255.455C15.0946 263.482 12.8955 271.481 13.0038 279.869C13.3326 305.331 40.7136 313.785 60.6122 311.695C82.7689 309.368 98.0044 291.194 115.488 278.979C134.979 265.362 157.022 280.988 174.788 290.049C190.811 298.221 210.333 306.119 228.499 303.442C247.631 300.623 268.279 299.932 277.552 278.436C288.868 252.201 280.518 227.243 274.663 200.846C270.55 182.301 271.728 165.918 273.126 147.126C274.215 132.495 276.49 116.302 280.3 102.154C282.187 95.1461 277.526 92.7112 275.269 100.078C269.076 120.294 271.573 144.195 273.126 164.918C274.885 188.386 275.679 211.264 275.455 234.798C275.367 244.028 275.289 254.919 271.263 263.461C269.62 266.948 267.431 262.91 266.325 260.99C260.53 250.937 257.66 239.856 255.704 228.373C252.502 209.578 249.872 190.68 246.946 171.836C245.465 162.297 244.458 152.836 238.189 145.298C237.84 144.879 235.594 142.997 235.254 144.26C234.072 148.647 237.081 157.018 237.769 161.063C242.65 189.74 248.022 218.654 251.838 247.499C252.712 254.11 252.816 260.662 252.816 267.316C252.816 269.686 252.998 272.342 250.44 269.54C243.833 262.304 239.67 251.795 235.626 242.853C230.459 231.424 225.808 219.78 221.046 208.16C218.578 202.138 210.984 185.038 210.984 191.604C210.984 209.542 217.39 228.068 220.3 245.67C221.516 253.022 208.798 244.2 205.673 242.705C195.62 237.893 185.784 235.216 174.835 237.17C162.917 239.297 151.208 243.207 139.431 246.065C123.377 249.962 106.364 250.255 89.9598 249.426C75.9969 248.721 53.7248 242.824 44.8669 258.025C38.6042 268.773 34.3958 286.414 49.5719 290.049C60.0068 292.549 75.9031 284.437 84.5095 278.93C92.5651 273.775 98.0174 265.102 103.05 256.888C107.275 249.992 86.4111 258.486 85.1617 259.013C77.937 262.064 71.1813 265.861 64.2457 269.54C60.6161 271.465 56.6463 272.808 53.7178 275.915C47.5716 282.436 54.5375 284.941 60.9848 283.13C71.2469 280.249 86.4618 266.588 81.5748 253.627C76.5449 240.286 62.93 240.286 52.7861 246.312C42.2008 252.601 31.0097 271.228 33.3143 284.811C33.8796 288.143 35.6986 286.138 37.0409 284.415C42.0048 278.045 44.9557 270.068 47.0098 262.176C48.0286 258.262 49.5238 247.036 43.8421 245.374C36.954 243.358 34.4669 259.404 34.1528 263.362C33.6779 269.344 38.261 279.761 44.8669 272.851C52.1894 265.192 52.9679 252.902 51.7613 242.804C51.3287 239.183 49.0889 235.869 45.5191 238.257C41.2185 241.133 38.3746 245.995 36.6682 250.909C35.9425 252.998 39.5868 256.098 40.6744 257.234C44.5997 261.337 48.3281 261.188 53.6247 261.188C65.1077 261.188 76.1639 257.127 87.6772 256.691C99.0549 256.26 109.878 257.238 121.171 258.569C140.831 260.886 159.837 272.459 178.515 278.93C188.528 282.398 200.114 282.235 210.565 282.587C221.44 282.953 229.717 283.216 240.238 280.314C242.749 279.621 253.655 277.197 251.372 271.813C249.601 267.638 244.101 263.557 240.471 261.583C228.655 255.159 214.983 251.865 202.04 249.228C175.519 243.825 147.744 235.873 120.565 236.774C117.268 236.884 95.0889 235.746 104.447 242.606C112.336 248.388 123.071 250.513 132.258 252.688C144.931 255.687 157.748 257.111 170.642 258.519C186.02 260.199 202.421 262.881 217.832 259.854C222.798 258.878 211.876 255.462 211.543 255.356C198.5 251.22 184.89 248.15 171.481 245.719C154.999 242.731 134.735 237.168 117.956 240.728C114.183 241.529 124.628 244.678 124.804 244.731C135.398 247.883 146.43 249.542 157.273 251.403C183.12 255.838 206.707 264.989 231.667 272.555C234.481 273.408 240.458 275.829 241.17 270.874C241.839 266.213 240.11 260.424 239.12 256.048C236.731 245.486 233.53 235.201 229.99 225.012C224.329 208.719 218.319 192.412 210.238 177.273C207.246 171.666 206.575 175.565 206.046 180.732C203.816 202.498 202.12 268.205 203.53 246.362C205.414 217.181 210.661 184.009 203.158 155.231C199.135 139.803 196.023 164.961 195.145 169.563C194.301 173.992 186.295 235.946 203.437 224.518C224.403 210.541 225.925 176.284 214.245 155.725C211.813 151.445 208.669 148.146 205.207 144.853C201.83 141.641 201.853 156.972 201.853 157.554C201.853 161.373 208.693 214.479 217.552 208.605C224.21 204.19 219.844 184.656 218.577 178.953C215.763 166.285 210.787 153.285 203.856 142.481C202.263 139.996 197.143 133.06 193.748 137.094C188.028 143.89 191.984 159.888 193.515 167.389C195.205 175.666 208.209 220.388 223.934 204.8C239.706 189.164 234.054 156.04 223.142 139.318C220.552 135.349 216.652 130.878 215.176 138.033C213.007 148.556 214.869 160.956 217.785 171.095C220.246 179.652 224.856 191.431 233.158 195.36C241.83 199.465 249.327 190.247 252.956 183.005C258.132 172.674 259.309 161.223 256.03 150.091C254.771 145.819 250.718 132.671 244.058 134.771C232.946 138.276 228.291 167.173 236.232 175.197C249.165 188.264 258.246 151.804 257.474 143.667C255.55 123.383 232.495 132.402 225.611 144.26C221.39 151.531 216.392 179.2 232.319 175.395C245.73 172.19 260.589 144.011 256.636 129.829C252.464 114.866 227.264 121.633 218.81 127.457C213.717 130.966 196.936 151.92 212.009 152.464C235.317 153.305 256.286 134.298 266.791 113.867C271.923 103.884 276.769 91.1943 277.971 79.7172C278.243 77.1145 279.144 74.1431 278.763 71.5135C277.724 64.3522 275.405 85.5746 274.244 92.7147C271.89 107.203 271.091 121.779 269.446 136.353C267.264 155.685 264.011 174.964 261.294 194.224C257.815 218.887 256.382 244.475 259.943 269.243C259.976 269.473 260.735 275.915 261.853 275.52C269.228 272.912 274.391 252.404 276.434 246.263C290.478 204.047 297.654 162.865 297.117 118.117C296.986 107.236 296.765 95.5729 295.114 84.8075C294.474 80.6363 293.463 76.4216 291.34 83.1766C287.202 96.3469 287.493 110.937 287.194 124.64C286.788 143.278 286.256 161.888 286.356 180.534C286.501 207.745 289.855 234.065 293.53 260.891C293.611 261.483 294.707 267.468 294.741 266.525C295.156 255.084 296.269 243.726 297.256 232.327C300.042 200.169 301.579 168.514 300.797 136.254C300.199 111.583 301.646 86.7509 300.424 62.1236C300.295 59.5198 299.903 36.7377 296.697 47.8906C289.637 72.4505 290.537 99.1863 289.896 124.591C289.053 158.04 288.305 191.706 293.483 224.666C294.903 233.706 296.934 247.762 288.825 253.676C277.914 261.634 265.206 265.667 251.977 267.86C243.931 269.193 236.259 269.819 228.126 270.133C225.184 270.247 215.333 269.29 214.245 272.752" stroke="#FF858D" stroke-width="25" stroke-linecap="round"/>
</svg>
